<?xml version="1.0" encoding="UTF-8"?>
<svg id="Layer_1" data-name="Layer 1" xmlns="http://www.w3.org/2000/svg" viewBox="0 0 190 120">
  <defs>
    <style>
      .cls-1, .cls-2 {
        stroke-width: 0px;
      }

      .cls-2 {
        fill: #fff;
      }
    </style>
  </defs>
  <path class="cls-1" d="m172.35,116.64c-20.51-1.57-28.27-17.58-35.39-34.3-30.49,1.94-57.97,1.98-76.2-3.81-11.41,21.63-28.85,35.8-40.81,38.12-11.24,2.42-19.42-1.36-19.59-12.53,1.09-28,11.48-54.64,23.4-81.07,12.16-13.66,31.13-13.76,43.6-3.54.54.44,1.06.89,1.57,1.36-.41,9.5,1.02,25.48,12.53,23.95l42.44-3.27c6.1-.31,4.36-13.28,3.27-20.68,1.12-1.26,2.32-2.38,3.54-3.41,8.04-6.64,17.81-7.49,30.18.68,16.18,14.2,25.92,38.93,28.31,75.65,1.4,14.82-3.75,22.92-16.86,22.86Z"/>
  <path class="cls-1" d="m128.69,14.99c10.23-5.84,20.96-5.84,32.2,0,.96-6.17-.79-11.18-5.73-11.87-7.93-.95-15.51-.53-22.78,1.09-4.68.86-5.14,5.72-3.68,10.78Z"/>
  <path class="cls-1" d="m63.34,14.03c-12.28-4.54-22.41-4.09-30.97,0-.72-3.5-1.19-8.04,2.32-9.28,5.55-1.66,11.48-3.13,24.01-1.09,3.24.51,4.78,3.97,4.64,10.37Z"/>
  <path class="cls-1" d="m121.49,39.43l-38.66,2.98c-10.24,1.37-11.73-12.5-11.42-21.22,16.14,1.45,33.72,1.36,53.12-.68,0,.03-.03.06-.06.09.99,6.73,2.58,18.55-2.98,18.83Z"/>
  <circle class="cls-2" cx="117.57" cy="60.82" r="10.39"/>
  <circle class="cls-2" cx="72.75" cy="61.62" r="10.39"/>
  <circle class="cls-2" cx="148.62" cy="52.45" r="4.74"/>
  <circle class="cls-2" cx="136.41" cy="41.21" r="4.74"/>
  <circle class="cls-2" cx="160.25" cy="40.54" r="4.74"/>
  <circle class="cls-2" cx="147.34" cy="29.02" r="4.74"/>
  <path class="cls-2" d="m40,33.51c-3.55-.3-6.43-.71-8.14-.75-1.49,2.61-1.49,5.47-.72,8.44l8.02.64-.54,9.39c2.17,1.22,4.5,1.39,6.98.61.58-2.84.88-5.95.88-9.34l7.94.64c1.78-1.77,1.86-4.54.54-8.14l-7.36-.62.87-9.23c-1.34-1.65-3.88-1.92-7.78-.62l-.7,8.98Z"/>
</svg>