<?xml version="1.0" encoding="UTF-8"?>
<svg id="Layer_1" data-name="Layer 1" xmlns="http://www.w3.org/2000/svg" viewBox="0 0 190 120">
  <defs>
    <style>
      .cls-1 {
        fill: #9c27b0;
        stroke-width: 0px;
      }
    </style>
  </defs>
  <path class="cls-1" d="m189.21,93.79c-2.38-36.72-12.13-61.45-28.31-75.66-12.36-8.17-22.14-7.32-30.17-.68-1.23,1.03-2.42,2.15-3.55,3.41,1.09,7.39,2.83,20.37-3.27,20.68l-42.44,3.27c-11.51,1.53-12.94-14.45-12.53-23.95-.51-.48-1.03-.92-1.57-1.36-12.47-10.22-31.44-10.12-43.6,3.54C11.85,49.47,1.46,76.11.37,104.11c.17,11.17,8.34,14.95,19.59,12.53,11.95-2.31,29.39-16.48,40.8-38.11,18.23,5.79,45.71,5.75,76.2,3.81,7.12,16.73,14.88,32.74,35.39,34.3,13.11.07,18.26-8.04,16.86-22.85ZM54.42,43.15l-7.94-.64c.01,3.38-.29,6.49-.87,9.34-2.49.77-4.82.6-6.99-.62l.54-9.38-8.02-.64c-.77-2.98-.77-5.84.72-8.45,1.7.04,4.58.45,8.14.75l.7-8.98c3.9-1.3,6.44-1.03,7.78.62l-.88,9.23,7.36.63c1.32,3.59,1.24,6.37-.54,8.14Zm18.33,28.86c-5.74,0-10.39-4.65-10.39-10.39s4.65-10.39,10.39-10.39,10.39,4.65,10.39,10.39-4.65,10.39-10.39,10.39Zm44.82-.8c-5.74,0-10.39-4.65-10.39-10.39s4.65-10.39,10.39-10.39,10.39,4.66,10.39,10.39-4.65,10.39-10.39,10.39Zm18.84-25.26c-2.62,0-4.74-2.13-4.74-4.74s2.12-4.74,4.74-4.74,4.74,2.12,4.74,4.74-2.12,4.74-4.74,4.74Zm10.93-21.68c2.62,0,4.74,2.13,4.74,4.75s-2.12,4.74-4.74,4.74-4.74-2.13-4.74-4.74,2.12-4.75,4.74-4.75Zm1.28,32.92c-2.62,0-4.74-2.12-4.74-4.74s2.12-4.74,4.74-4.74,4.74,2.12,4.74,4.74-2.12,4.74-4.74,4.74Zm11.63-11.91c-2.62,0-4.74-2.12-4.74-4.74s2.12-4.74,4.74-4.74,4.74,2.12,4.74,4.74-2.13,4.74-4.74,4.74Z"/>
  <path class="cls-1" d="m128.69,14.99c10.23-5.84,20.96-5.84,32.2,0,.96-6.17-.79-11.18-5.73-11.87-7.93-.95-15.51-.53-22.78,1.09-4.68.86-5.14,5.72-3.68,10.78Z"/>
  <path class="cls-1" d="m63.34,14.03c-12.28-4.54-22.41-4.09-30.97,0-.72-3.5-1.19-8.04,2.32-9.28,5.55-1.66,11.48-3.13,24.01-1.09,3.24.51,4.78,3.97,4.64,10.37Z"/>
  <path class="cls-1" d="m121.49,39.43l-38.66,2.98c-10.24,1.37-11.73-12.5-11.42-21.22,16.14,1.45,33.72,1.36,53.12-.68,0,.03-.03.06-.06.09.99,6.73,2.58,18.55-2.98,18.83Z"/>
</svg>