<svg viewBox="0 0 128 128" xmlns="http://www.w3.org/2000/svg"><path fill="white" d="M9.531 12.33c-2.109 0-3.864 1.755-3.864 3.864v95.508c0 2.109 1.755 3.864 3.864 3.864h108.61c2.109 0 3.864-1.755 3.864-3.864v-95.508c0-2.109-1.755-3.864-3.864-3.864h-108.61zM68.46 38.34c5.6 0 10.086 1.118 13.597 3.317 3.513 2.23 5.252 5.725 5.252 10.485 0 3.024-.752 5.501-2.258 7.466-1.502 1.961-3.514 3.24-6.008 3.844v.215c3.276.535 5.788 1.846 7.539 3.931 1.751 2.086 2.627 4.736 2.627 7.938 0 5.148-1.864 9.04-5.576 11.674-3.71 2.634-8.833 3.953-15.381 3.953h-27.399v-52.823h27.607zm-3.006 21.646c3.149 0 5.542-.581 7.18-1.743 1.638-1.16 2.456-2.947 2.456-5.358 0-2.232-.818-3.868-2.456-4.909-1.638-1.041-4.11-1.562-7.402-1.562h-11.223v13.572h11.445zm.749 23.417c3.351 0 5.903-.632 7.66-1.898 1.759-1.267 2.639-3.15 2.639-5.653 0-2.382-.861-4.171-2.584-5.366-1.72-1.194-4.292-1.793-7.715-1.793h-12.196v14.709h12.196z"></path></svg>
