<svg viewBox="0 0 128 128" xmlns="http://www.w3.org/2000/svg"><path fill="white" d="M1.408 1.408h125.184v125.185h-125.184zm100.136 68.763c0-19.021 10.531-27.756 24.209-27.756 7.123 0 13.046 1.446 17.561 3.394l-2.893 11.053c-3.571-1.725-7.683-2.893-12.421-2.893-7.011 0-12.532 4.403-12.532 15.602v32.874h-14.035v-32.274zm-46.908-30.092c8.347 0 14.591 2.114 19.245 4.785l-3.783 11.276c-3.894-2.114-8.347-3.56-14.257-3.56-11.164 0-19.356 7.123-19.356 22.948 0 14.368 7.235 22.614 19.467 22.614 5.688 0 11.498-1.446 15.392-3.894l2.783 11.164c-4.897 2.783-12.309 4.674-19.8 4.674-21.057 0-34.513-13.568-34.513-35.068 0-20.278 13.679-35.068 34.823-35.068z"></path></svg>
