<svg viewBox="0 0 128 128" xmlns="http://www.w3.org/2000/svg"><path fill="white" d="M20.7 90.2l-2.9 9.5c-.4 1.4-1.8 2.4-3.3 2.4h-11c-1.4 0-2.3-1.5-1.7-2.8l8.2-17.2c.5-1.1.1-2.5-1-3.1l-8.9-5.1c-1.3-.7-1.8-2.4-1-3.7l10.2-18.2c.7-1.3 2.3-1.8 3.6-1.1l10.9 6.1c1.1.6 2.5.3 3.2-.9l8.3-13c.9-1.4 2.7-1.8 4.1-1l17 9.5c1.4.8 1.9 2.5 1.1 3.9l-9.9 17.5c-.6 1.1-.3 2.5.8 3.2l8.5 5.4c1.3.8 1.7 2.5.9 3.8l-10.2 16.8c-.8 1.3-2.6 1.7-3.9.9l-9.9-6.2c-1.1-.7-2.5-.4-3.2.8l-8.9 14.5c-.9 1.4-2.9 1.8-4.2.8l-17-12.4c-1.3-.9-1.6-2.8-.6-4.1l11.8-15.2c.8-1 .6-2.5-.4-3.3l-7.6-6.1c-1.2-1-1.4-2.8-.4-4l12.2-14.5c1-1.2 2.8-1.4 4-.4l9.3 7.5c1 .8 2.5.7 3.3-.5l10.2-14.9c1-1.4 3-1.7 4.4-.7l18.7 13.2c1.4 1 1.7 2.9.7 4.3l-12.7 17.4c-.8 1.1-.6 2.6.5 3.4l8.4 6.2c1.3 1 1.6 2.9.6 4.3l-13.3 17.4c-1 1.3-2.9 1.6-4.2.6l-10-7.4c-1.1-.8-2.6-.6-3.4.6l-11.3 16.5c-1.1 1.5-3.2 1.9-4.7.8l-19.3-14.5c-1.5-1.1-1.8-3.2-.7-4.7l13.7-18.4c.9-1.2.6-2.8-.5-3.7l-8.3-6.5c-1.3-1-1.5-2.9-.5-4.2l13.6-17.3c1-1.3 2.9-1.5 4.2-.5l10.2 8c1.1.9 2.7.7 3.6-.5l11.9-17.2c1.1-1.6 3.4-2 5-.9l20.4 14.3c1.6 1.1 2 3.3.9 4.9l-14.6 19.9c-.9 1.2-.6 2.9.6 3.8l8.9 6.5c1.4 1 1.7 3 .7 4.4l-14.7 19.3c-1 1.4-3 1.7-4.4.7l-10.6-7.6c-1.2-.8-2.8-.6-3.7.7l-12.4 18c-1.2 1.7-3.6 2.1-5.3 1l-20.9-14.3c-1.7-1.2-2.1-3.5-1-5.2l14.9-20.1c1-1.3.7-3.2-.6-4.1l-8.7-6.3c-1.4-1-1.7-3-.7-4.4l14.7-19c1-1.4 3-1.7 4.4-.7l10.5 7.6c1.2.9 2.8.6 3.7-.6l12.5-18.1c1.2-1.7 3.6-2.1 5.3-.9l21 14.1c1.7 1.2 2.1 3.5.9 5.2l-15.1 20.3c-1 1.3-.7 3.2.7 4.2l8.5 6.1c1.4 1 1.7 3 .7 4.4l-14.8 19.1c-1 1.4-3 1.7-4.4.7l-10.4-7.4c-1.2-.9-2.9-.6-3.8.7l-12.5 18.1c-1.2 1.7-3.6 2.1-5.3.9l-20.9-13.9c-1.7-1.1-2.1-3.5-.9-5.2l15-20.2c1-1.3.7-3.2-.7-4.2l-8.3-5.9c-1.4-1-1.7-3-.7-4.4l14.7-19c1-1.4 3-1.7 4.4-.7l10.2 7.2c1.2.9 2.9.6 3.8-.7l12.4-18c1.2-1.7 3.6-2.1 5.3-.9l20.8 13.7c1.7 1.1 2.1 3.5.9 5.2l-14.9 20.1c-1 1.3-.7 3.2.7 4.2l8.1 5.7c1.4 1 1.7 3 .7 4.4l-14.6 18.9c-1 1.4-3 1.7-4.4.7l-10-6.9c-1.2-.9-2.9-.6-3.8.7l-12.3 17.8c-1.2 1.7-3.6 2.1-5.3.9l-20.6-13.4c-1.7-1.1-2.1-3.5-.9-5.2l14.8-19.9c1-1.3.7-3.2-.7-4.2l-7.9-5.4c-1.4-1-1.7-3-.7-4.4l14.5-18.7c1-1.4 3-1.7 4.4-.7l9.8 6.7c1.2.9 2.9.6 3.8-.7l12.1-17.6c1.2-1.7 3.6-2.1 5.3-.9l20.4 13.1c1.7 1.1 2.1 3.5.9 5.2l-14.6 19.7c-1 1.3-.7 3.2.7 4.2l7.7 5.2c1.4 1 1.7 3 .7 4.4l-14.3 18.4c-1 1.4-3 1.7-4.4.7l-9.6-6.4c-1.2-.9-2.9-.6-3.8.7l-11.9 17.3c-1.2 1.7-3.6 2.1-5.3.9l-20.1-12.8c-1.7-1.1-2.1-3.5-.9-5.2l14.4-19.3c1-1.3.7-3.2-.7-4.2l-7.5-4.9c-1.4-1-1.7-3-.7-4.4l14.1-18.1c1-1.4 3-1.7 4.4-.7l9.3 6.1c1.2.9 2.9.6 3.8-.7l11.7-16.9c1.2-1.7 3.6-2.1 5.3-.9l19.8 12.4c1.7 1.1 2.1 3.5.9 5.2l-14.1 18.9c-1 1.3-.7 3.2.7 4.2l7.2 4.6c1.4 1 1.7 3 .7 4.4l-13.9 17.8c-1 1.4-3 1.7-4.4.7l-9-5.8c-1.2-.9-2.9-.6-3.8.7l-11.4 16.5c-1.2 1.7-3.6 2.1-5.3.9l-19.4-11.9c-1.7-1.1-2.1-3.5-.9-5.2l13.7-18.4c1-1.3.7-3.2-.7-4.2l-6.9-4.3c-1.4-1-1.7-3-.7-4.4l13.6-17.4c1-1.4 3-1.7 4.4-.7l8.7 5.4c1.2.9 2.9.6 3.8-.7l11.1-16c1.2-1.7 3.6-2.1 5.3-.9l19 11.4c1.7 1.1 2.1 3.5.9 5.2l-13.3 17.8c-1 1.3-.7 3.2.7 4.2l6.6 4c1.4 1 1.7 3 .7 4.4l-13.3 17c-1 1.4-3 1.7-4.4.7l-8.3-5c-1.2-.9-2.9-.6-3.8.7l-10.7 15.5c-1.2 1.7-3.6 2.1-5.3.9l-18.5-11c-1.7-1.1-2.1-3.5-.9-5.2l12.8-17.1c1-1.3.7-3.2-.7-4.2l-6.2-3.6c-1.4-1-1.7-3-.7-4.4l13-16.5c1-1.4 3-1.7 4.4-.7l7.9 4.6c1.2.9 2.9.6 3.8-.7l10.3-14.9c1.2-1.7 3.6-2.1 5.3-.9l18 10.5c1.7 1.1 2.1 3.5.9 5.2l-12.3 16.4c-1 1.3-.7 3.2.7 4.2l5.8 3.2c1.4 1 1.7 3 .7 4.4l-12.6 16c-1 1.4-3 1.7-4.4.7l-7.5-4.2c-1.2-.9-2.9-.6-3.8.7l-9.9 14.3c-1.2 1.7-3.6 2.1-5.3.9l-17.4-9.9c-1.7-1.1-2.1-3.5-.9-5.2l11.7-15.6c1-1.3.7-3.2-.7-4.2l-5.4-2.8c-1.4-1-1.7-3-.7-4.4l12.2-15.5c1-1.4 3-1.7 4.4-.7l7.1 3.8c1.2.9 2.9.6 3.8-.7l9.4-13.6c1.2-1.7 3.6-2.1 5.3-.9l16.8 9.3c1.7 1.1 2.1 3.5.9 5.2l-11 14.7c-1 1.3-.7 3.2.7 4.2l5 2.4c1.4 1 1.7 3 .7 4.4l-11.8 14.9c-1 1.4-3 1.7-4.4.7l-6.7-3.4c-1.2-.9-2.9-.6-3.8.7l-9 12.9c-1.2 1.7-3.6 2.1-5.3.9l-16.2-8.7c-1.7-1.1-2.1-3.5-.9-5.2l10.4-13.8c1-1.3.7-3.2-.7-4.2l-4.6-2c-1.4-1-1.7-3-.7-4.4l11.4-14.3c1-1.4 3-1.7 4.4-.7l6.2 2.9c1.2.9 2.9.6 3.8-.7l8.5-12.2c1.2-1.7 3.6-2.1 5.3-.9l15.5 8.1c1.7 1.1 2.1 3.5.9 5.2l-9.7 12.8c-1 1.3-.7 3.2.7 4.2l4.1 1.6c1.4 1 1.7 3 .7 4.4l-11 13.7c-1 1.4-3 1.7-4.4.7l-5.7-2.5c-1.2-.9-2.9-.6-3.8.7l-8 11.4c-1.2 1.7-3.6 2.1-5.3.9l-14.8-7.4c-1.7-1.1-2.1-3.5-.9-5.2l9-11.8c1-1.3.7-3.2-.7-4.2l-3.6-1.2c-1.4-1-1.7-3-.7-4.4l10.5-13c1-1.4 3-1.7 4.4-.7l5.2 2c1.2.9 2.9.6 3.8-.7l7.5-10.6c1.2-1.7 3.6-2.1 5.3-.9l14.1 6.7c1.7 1.1 2.1 3.5.9 5.2l-8.3 10.8c-1 1.3-.7 3.2.7 4.2l3.2.8c1.4 1 1.7 3 .7 4.4l-10 12.3c-1 1.4-3 1.7-4.4.7l-4.7-1.5c-1.2-.9-2.9-.6-3.8.7l-6.9 9.7c-1.2 1.7-3.6 2.1-5.3.9l-13.3-5.9c-1.7-1.1-2.1-3.5-.9-5.2l7.5-9.7c1-1.3.7-3.2-.7-4.2l-2.7-.4c-1.4-1-1.7-3-.7-4.4l9.5-11.6c1-1.4 3-1.7 4.4-.7l4.1 1.1c1.2.9 2.9.6 3.8-.7l6.3-8.8c1.2-1.7 3.6-2.1 5.3-.9l12.5 5.1c1.7 1.1 2.1 3.5.9 5.2l-6.6 8.5c-1 1.3-.7 3.2.7 4.2l2.2 0c1.4 1 1.7 3 .7 4.4l-9 10.9c-1 1.4-3 1.7-4.4.7l-3.5-.6c-1.2-.9-2.9-.6-3.8.7l-5.6 7.8c-1.2 1.7-3.6 2.1-5.3.9l-11.6-4.2c-1.7-1.1-2.1-3.5-.9-5.2l5.7-7.4c1-1.3.7-3.2-.7-4.2l-1.7.4c-1.4-1-1.7-3-.7-4.4l8.4-10.1c1-1.4 3-1.7 4.4-.7l2.9.2c1.2.9 2.9.6 3.8-.7l4.9-6.8c1.2-1.7 3.6-2.1 5.3-.9l10.7 3.3c1.7 1.1 2.1 3.5.9 5.2l-4.8 6.2c-1 1.3-.7 3.2.7 4.2l1.2-.8c1.4 1 1.7 3 .7 4.4l-7.8 9.3c-1 1.4-3 1.7-4.4.7l-2.3.2c-1.2-.9-2.9-.6-3.8.7l-4.2 5.8c-1.2 1.7-3.6 2.1-5.3.9l-9.7-2.3c-1.7-1.1-2.1-3.5-.9-5.2l3.8-4.8c1-1.3.7-3.2-.7-4.2l-.6 1.2c-1.4-1-1.7-3-.7-4.4l7.1-8.4c1-1.4 3-1.7 4.4-.7l1.7-.6c1.2.9 2.9.6 3.8-.7l3.4-4.7c1.2-1.7 3.6-2.1 5.3-.9l8.7 1.3c1.7 1.1 2.1 3.5.9 5.2l-2.8 3.5c-1 1.3-.7 3.2.7 4.2"></path></svg>
